<svg width="50" height="50" viewBox="0 0 50 50" fill="none" xmlns="http://www.w3.org/2000/svg">
<path d="M0 6C0 2.68629 2.68629 0 6 0H44C47.3137 0 50 2.68629 50 6V44C50 47.3137 47.3137 50 44 50H6C2.68629 50 0 47.3137 0 44V6Z" fill="#EAB308"/>
<path d="M28.2333 42.7333C28.6445 42.7333 29.0073 43.0024 29.1266 43.396C29.2309 43.7405 29.1274 44.1097 28.8704 44.3493L28.751 44.4432L28.7474 44.446C28.7456 44.4471 28.7428 44.4487 28.7401 44.4505C28.7346 44.4541 28.7274 44.4591 28.7182 44.4651C28.6992 44.4774 28.6719 44.4948 28.638 44.5161C28.5703 44.5589 28.4736 44.6185 28.3536 44.6893C28.1143 44.8306 27.7769 45.0189 27.3829 45.2079C26.6278 45.5704 25.5361 46 24.5 46C23.4639 46 22.3722 45.5704 21.6171 45.2079C21.2231 45.0189 20.8857 44.8306 20.6464 44.6893C20.5264 44.6185 20.4297 44.5589 20.362 44.5161C20.3281 44.4948 20.3008 44.4774 20.2818 44.4651C20.2726 44.4591 20.2654 44.4541 20.2599 44.4505C20.2571 44.4487 20.2544 44.4471 20.2526 44.446L20.2499 44.4432C19.9077 44.2151 19.7543 43.7896 19.8734 43.396C19.9927 43.0024 20.3555 42.7333 20.7667 42.7333H28.2333ZM28.7 40.1986C29.2153 40.1986 29.6331 40.6166 29.6333 41.1319C29.6333 41.6474 29.2155 42.0652 28.7 42.0652H19.8333C19.3179 42.0652 18.9 41.6474 18.9 41.1319C18.9002 40.6166 19.318 40.1986 19.8333 40.1986H28.7ZM26.8534 19.0473C27.2137 18.8506 27.665 18.9119 27.9599 19.2068L29.8266 21.0734C30.0428 21.2897 30.1398 21.5982 30.0854 21.8992L27.2508 37.6H28.7V35.7333C28.7 35.3876 28.8912 35.0702 29.1967 34.9085L29.1977 34.9076C29.1999 34.9064 29.2039 34.9042 29.2095 34.9012C29.2212 34.8948 29.2404 34.8845 29.266 34.8702C29.3172 34.8415 29.3951 34.7972 29.4957 34.7371C29.6976 34.6166 29.9914 34.4339 30.3452 34.1911C31.0543 33.7045 31.9986 32.9816 32.9401 32.0401C34.8353 30.1449 36.6333 27.452 36.6333 24.0667C36.6333 17.0177 31.3815 11 24.5 11C17.6185 11 12.3667 17.0177 12.3667 24.0667C12.3667 27.4726 14.0688 30.1713 15.8466 32.0602C16.7313 33.0002 17.6177 33.7216 18.2829 34.2066C18.6147 34.4486 18.8896 34.6301 19.0786 34.7499C19.1731 34.8097 19.2461 34.8545 19.2937 34.8829C19.3173 34.897 19.3349 34.9068 19.3457 34.913C19.3508 34.916 19.3546 34.9182 19.3566 34.9194L19.3585 34.9203C19.6518 35.0857 19.8333 35.3965 19.8333 35.7333V37.6H21.5314L18.9128 21.8865C18.8633 21.5892 18.9604 21.2865 19.1734 21.0734L21.0401 19.2068L21.1012 19.1512C21.4159 18.8874 21.8706 18.8587 22.2177 19.0901L24.5 20.6113L26.7823 19.0901L26.8534 19.0473ZM25.0177 22.5099C24.7042 22.7189 24.2958 22.7189 23.9823 22.5099L21.8185 21.0671L20.8323 22.0533L23.4236 37.6H25.3531L28.1604 22.0469L27.1806 21.0671L25.0177 22.5099ZM35.4493 32.8021C35.7794 32.4062 36.3686 32.3527 36.7646 32.6827L39.5646 35.016C39.9605 35.346 40.014 35.9353 39.684 36.3312C39.354 36.7272 38.7647 36.7806 38.3687 36.4507L35.5687 34.1173C35.1728 33.7873 35.1194 33.198 35.4493 32.8021ZM43.6333 23.1333C44.1488 23.1333 44.5667 23.5512 44.5667 24.0667C44.5667 24.5821 44.1488 25 43.6333 25H40.3667C39.8512 25 39.4333 24.5821 39.4333 24.0667C39.4333 23.5512 39.8512 23.1333 40.3667 23.1333H43.6333ZM37.8401 10.3401C38.2046 9.97562 38.7954 9.97562 39.1599 10.3401C39.5244 10.7046 39.5244 11.2954 39.1599 11.6599L36.8266 13.9932C36.4621 14.3577 35.8713 14.3577 35.5068 13.9932C35.1423 13.6287 35.1423 13.0379 35.5068 12.6734L37.8401 10.3401ZM23.5667 7.73333V4.93333C23.5667 4.41787 23.9845 4 24.5 4C25.0155 4 25.4333 4.41787 25.4333 4.93333V7.73333C25.4333 8.2488 25.0155 8.66667 24.5 8.66667C23.9845 8.66667 23.5667 8.2488 23.5667 7.73333ZM38.5 24.0667C38.5 28.148 36.3314 31.2884 34.2599 33.3599C33.2182 34.4016 32.179 35.1955 31.4007 35.7297C31.0716 35.9555 30.7867 36.1344 30.5667 36.2684V38.5333C30.5667 39.0488 30.1488 39.4667 29.6333 39.4667H18.9C18.3845 39.4667 17.9667 39.0488 17.9667 38.5333V36.252C17.7593 36.1177 17.492 35.939 17.1837 35.7142C16.449 35.1784 15.4687 34.3831 14.4867 33.3398C12.5312 31.2621 10.5 28.1273 10.5 24.0667C10.5 16.1583 16.4241 9.13333 24.5 9.13333C32.5759 9.13333 38.5 16.1583 38.5 24.0667Z" fill="#121212"/>
</svg>
